<svg id="wave" style="transform:rotate(0deg); transition: 0.3s" viewBox="0 0 1440 360" version="1.1" xmlns="http://www.w3.org/2000/svg"><defs><linearGradient id="sw-gradient-0" x1="0" x2="0" y1="1" y2="0"><stop stop-color="rgba(243, 106, 62, 1)" offset="0%"></stop><stop stop-color="rgba(255, 179, 11, 1)" offset="100%"></stop></linearGradient></defs><path style="transform:translate(0, 0px); opacity:1" fill="#fff" d="M0,0L80,30C160,60,320,120,480,150C640,180,800,180,960,168C1120,156,1280,132,1440,144C1600,156,1760,204,1920,186C2080,168,2240,84,2400,48C2560,12,2720,24,2880,78C3040,132,3200,228,3360,246C3520,264,3680,204,3840,156C4000,108,4160,72,4320,84C4480,96,4640,156,4800,174C4960,192,5120,168,5280,186C5440,204,5600,264,5760,246C5920,228,6080,132,6240,132C6400,132,6560,228,6720,246C6880,264,7040,204,7200,174C7360,144,7520,144,7680,144C7840,144,8000,144,8160,156C8320,168,8480,192,8640,186C8800,180,8960,144,9120,114C9280,84,9440,60,9600,78C9760,96,9920,156,10080,198C10240,240,10400,264,10560,240C10720,216,10880,144,11040,102C11200,60,11360,48,11440,42L11520,36L11520,360L11440,360C11360,360,11200,360,11040,360C10880,360,10720,360,10560,360C10400,360,10240,360,10080,360C9920,360,9760,360,9600,360C9440,360,9280,360,9120,360C8960,360,8800,360,8640,360C8480,360,8320,360,8160,360C8000,360,7840,360,7680,360C7520,360,7360,360,7200,360C7040,360,6880,360,6720,360C6560,360,6400,360,6240,360C6080,360,5920,360,5760,360C5600,360,5440,360,5280,360C5120,360,4960,360,4800,360C4640,360,4480,360,4320,360C4160,360,4000,360,3840,360C3680,360,3520,360,3360,360C3200,360,3040,360,2880,360C2720,360,2560,360,2400,360C2240,360,2080,360,1920,360C1760,360,1600,360,1440,360C1280,360,1120,360,960,360C800,360,640,360,480,360C320,360,160,360,80,360L0,360Z"></path></svg>