<svg id="wave" style="transform:rotate(0deg); transition: 0.3s" viewBox="0 0 1440 460" version="1.1" xmlns="http://www.w3.org/2000/svg"><defs><linearGradient id="sw-gradient-0" x1="0" x2="0" y1="1" y2="0"><stop stop-color="rgba(243, 106, 62, 1)" offset="0%"></stop><stop stop-color="rgba(255, 179, 11, 1)" offset="100%"></stop></linearGradient></defs><path style="transform:translate(0, 0px); opacity:1" fill="#eee" d="M0,0L80,38.3C160,77,320,153,480,191.7C640,230,800,230,960,214.7C1120,199,1280,169,1440,184C1600,199,1760,261,1920,237.7C2080,215,2240,107,2400,61.3C2560,15,2720,31,2880,99.7C3040,169,3200,291,3360,314.3C3520,337,3680,261,3840,199.3C4000,138,4160,92,4320,107.3C4480,123,4640,199,4800,222.3C4960,245,5120,215,5280,237.7C5440,261,5600,337,5760,314.3C5920,291,6080,169,6240,168.7C6400,169,6560,291,6720,314.3C6880,337,7040,261,7200,222.3C7360,184,7520,184,7680,184C7840,184,8000,184,8160,199.3C8320,215,8480,245,8640,237.7C8800,230,8960,184,9120,145.7C9280,107,9440,77,9600,99.7C9760,123,9920,199,10080,253C10240,307,10400,337,10560,306.7C10720,276,10880,184,11040,130.3C11200,77,11360,61,11440,53.7L11520,46L11520,460L11440,460C11360,460,11200,460,11040,460C10880,460,10720,460,10560,460C10400,460,10240,460,10080,460C9920,460,9760,460,9600,460C9440,460,9280,460,9120,460C8960,460,8800,460,8640,460C8480,460,8320,460,8160,460C8000,460,7840,460,7680,460C7520,460,7360,460,7200,460C7040,460,6880,460,6720,460C6560,460,6400,460,6240,460C6080,460,5920,460,5760,460C5600,460,5440,460,5280,460C5120,460,4960,460,4800,460C4640,460,4480,460,4320,460C4160,460,4000,460,3840,460C3680,460,3520,460,3360,460C3200,460,3040,460,2880,460C2720,460,2560,460,2400,460C2240,460,2080,460,1920,460C1760,460,1600,460,1440,460C1280,460,1120,460,960,460C800,460,640,460,480,460C320,460,160,460,80,460L0,460Z"></path></svg>